<?xml version="1.0" encoding="UTF-8"?>
<svg width="60px" height="60px" viewBox="0 0 60 60" version="1.1" xmlns="http://www.w3.org/2000/svg" xmlns:xlink="http://www.w3.org/1999/xlink">
    <!-- Generator: Sketch 54 (76480) - https://sketchapp.com -->
    <title>编组 19</title>
    <desc>Created with Sketch.</desc>
    <g id="页面1" stroke="none" stroke-width="1" fill="none" fill-rule="evenodd">
        <g id="软件开发复制" transform="translate(-125.000000, -2433.000000)">
            <g id="编组-19" transform="translate(155.000000, 2463.000000) scale(-1, 1) translate(-155.000000, -2463.000000) translate(125.000000, 2433.000000)">
                <circle id="椭圆形" fill="#000000" opacity="0.203778" transform="translate(30.000000, 30.000000) scale(-1, 1) translate(-30.000000, -30.000000) " cx="30" cy="30" r="30"></circle>
                <g id="jiantouarrow487" transform="translate(29.000000, 30.468750) scale(-1, 1) translate(-29.000000, -30.468750) translate(19.625000, 14.062500)" fill="#FFFFFF" fill-rule="nonzero">
                    <path d="M18.0704862,18.0274719 L3.93470642,32.107451 C3.03547706,33.0031586 1.57786239,33.0031586 0.679073394,32.107451 C-0.219715596,31.2121821 -0.219715596,29.7598375 0.679073394,28.8645685 L13.1868165,16.40625 L0.679513761,3.94793146 C-0.219275229,3.05222389 -0.219275229,1.60031789 0.679513761,0.705048956 C1.57830275,-0.190658616 3.03591743,-0.190658616 3.93514679,0.705048956 L18.0709266,14.7850281 C18.5201009,15.2328819 18.7446881,15.8193466 18.7446881,16.40625 C18.7446881,16.9931534 18.5196606,17.5800568 18.0704862,18.0274719 Z" id="路径"></path>
                </g>
            </g>
        </g>
    </g>
</svg>